<mxfile host="app.diagrams.net" modified="2021-08-11T03:20:24.437Z" agent="5.0 (Windows NT 10.0; Win64; x64) AppleWebKit/537.36 (KHTML, like Gecko) Chrome/92.0.4515.131 Safari/537.36 Edg/92.0.902.67" etag="IihICDYoM66TuBqM4gGs" version="14.9.5" type="github">
  <diagram id="0qekM_KNeQhb8r11Hn8Y" name="Page-1">
    <mxGraphModel dx="1278" dy="579" grid="1" gridSize="10" guides="1" tooltips="1" connect="1" arrows="1" fold="1" page="1" pageScale="1" pageWidth="850" pageHeight="1100" math="0" shadow="0">
      <root>
        <mxCell id="0" />
        <mxCell id="1" parent="0" />
        <mxCell id="CEkS9k3KRwkcofwsft-u-4" value="AWS Cloud" style="points=[[0,0],[0.25,0],[0.5,0],[0.75,0],[1,0],[1,0.25],[1,0.5],[1,0.75],[1,1],[0.75,1],[0.5,1],[0.25,1],[0,1],[0,0.75],[0,0.5],[0,0.25]];outlineConnect=0;gradientColor=none;html=1;whiteSpace=wrap;fontSize=12;fontStyle=0;shape=mxgraph.aws4.group;grIcon=mxgraph.aws4.group_aws_cloud_alt;strokeColor=#232F3E;fillColor=none;verticalAlign=top;align=left;spacingLeft=30;fontColor=#232F3E;dashed=0;" parent="1" vertex="1">
          <mxGeometry x="40" y="10" width="790" height="1190" as="geometry" />
        </mxCell>
        <mxCell id="CEkS9k3KRwkcofwsft-u-5" value="Region :&amp;nbsp;us-east-2" style="points=[[0,0],[0.25,0],[0.5,0],[0.75,0],[1,0],[1,0.25],[1,0.5],[1,0.75],[1,1],[0.75,1],[0.5,1],[0.25,1],[0,1],[0,0.75],[0,0.5],[0,0.25]];outlineConnect=0;gradientColor=none;html=1;whiteSpace=wrap;fontSize=12;fontStyle=0;shape=mxgraph.aws4.group;grIcon=mxgraph.aws4.group_region;strokeColor=#147EBA;fillColor=none;verticalAlign=top;align=left;spacingLeft=30;fontColor=#147EBA;dashed=1;" parent="1" vertex="1">
          <mxGeometry x="90" y="60" width="710" height="1080" as="geometry" />
        </mxCell>
        <mxCell id="CEkS9k3KRwkcofwsft-u-6" value="VPC :&amp;nbsp;quantum-vpc-stack&amp;nbsp;" style="points=[[0,0],[0.25,0],[0.5,0],[0.75,0],[1,0],[1,0.25],[1,0.5],[1,0.75],[1,1],[0.75,1],[0.5,1],[0.25,1],[0,1],[0,0.75],[0,0.5],[0,0.25]];outlineConnect=0;gradientColor=none;html=1;whiteSpace=wrap;fontSize=12;fontStyle=0;shape=mxgraph.aws4.group;grIcon=mxgraph.aws4.group_vpc;strokeColor=#248814;fillColor=none;verticalAlign=top;align=left;spacingLeft=30;fontColor=#AAB7B8;dashed=0;" parent="1" vertex="1">
          <mxGeometry x="108.25" y="100" width="653.5" height="860" as="geometry" />
        </mxCell>
        <mxCell id="_q4rEJNwvG85wnGiOkt0-15" value="" style="edgeStyle=orthogonalEdgeStyle;rounded=0;orthogonalLoop=1;jettySize=auto;html=1;" edge="1" parent="1" source="CEkS9k3KRwkcofwsft-u-7" target="_q4rEJNwvG85wnGiOkt0-12">
          <mxGeometry relative="1" as="geometry" />
        </mxCell>
        <mxCell id="CEkS9k3KRwkcofwsft-u-7" value="Private subnet 01" style="points=[[0,0],[0.25,0],[0.5,0],[0.75,0],[1,0],[1,0.25],[1,0.5],[1,0.75],[1,1],[0.75,1],[0.5,1],[0.25,1],[0,1],[0,0.75],[0,0.5],[0,0.25]];outlineConnect=0;gradientColor=none;html=1;whiteSpace=wrap;fontSize=12;fontStyle=0;shape=mxgraph.aws4.group;grIcon=mxgraph.aws4.group_security_group;grStroke=0;strokeColor=#147EBA;fillColor=#E6F2F8;verticalAlign=top;align=left;spacingLeft=30;fontColor=#147EBA;dashed=0;" parent="1" vertex="1">
          <mxGeometry x="195.5" y="160" width="130" height="80" as="geometry" />
        </mxCell>
        <mxCell id="_q4rEJNwvG85wnGiOkt0-27" value="" style="edgeStyle=orthogonalEdgeStyle;rounded=0;orthogonalLoop=1;jettySize=auto;html=1;" edge="1" parent="1" source="CEkS9k3KRwkcofwsft-u-10" target="_q4rEJNwvG85wnGiOkt0-14">
          <mxGeometry relative="1" as="geometry" />
        </mxCell>
        <mxCell id="CEkS9k3KRwkcofwsft-u-10" value="Public subnet 01" style="points=[[0,0],[0.25,0],[0.5,0],[0.75,0],[1,0],[1,0.25],[1,0.5],[1,0.75],[1,1],[0.75,1],[0.5,1],[0.25,1],[0,1],[0,0.75],[0,0.5],[0,0.25]];outlineConnect=0;gradientColor=none;html=1;whiteSpace=wrap;fontSize=12;fontStyle=0;shape=mxgraph.aws4.group;grIcon=mxgraph.aws4.group_security_group;grStroke=0;strokeColor=#248814;fillColor=#E9F3E6;verticalAlign=top;align=left;spacingLeft=30;fontColor=#248814;dashed=0;" parent="1" vertex="1">
          <mxGeometry x="195.5" y="590" width="130" height="130" as="geometry" />
        </mxCell>
        <mxCell id="CEkS9k3KRwkcofwsft-u-11" value="" style="outlineConnect=0;fontColor=#232F3E;gradientColor=none;fillColor=#232F3E;strokeColor=none;dashed=0;verticalLabelPosition=bottom;verticalAlign=top;align=center;html=1;fontSize=12;fontStyle=0;aspect=fixed;pointerEvents=1;shape=mxgraph.aws4.internet_alt2;" parent="1" vertex="1">
          <mxGeometry x="396" y="1220" width="78" height="78" as="geometry" />
        </mxCell>
        <mxCell id="_q4rEJNwvG85wnGiOkt0-16" value="" style="edgeStyle=orthogonalEdgeStyle;rounded=0;orthogonalLoop=1;jettySize=auto;html=1;" edge="1" parent="1" source="CEkS9k3KRwkcofwsft-u-20" target="_q4rEJNwvG85wnGiOkt0-13">
          <mxGeometry relative="1" as="geometry" />
        </mxCell>
        <mxCell id="CEkS9k3KRwkcofwsft-u-20" value="Private subnet 02" style="points=[[0,0],[0.25,0],[0.5,0],[0.75,0],[1,0],[1,0.25],[1,0.5],[1,0.75],[1,1],[0.75,1],[0.5,1],[0.25,1],[0,1],[0,0.75],[0,0.5],[0,0.25]];outlineConnect=0;gradientColor=none;html=1;whiteSpace=wrap;fontSize=12;fontStyle=0;shape=mxgraph.aws4.group;grIcon=mxgraph.aws4.group_security_group;grStroke=0;strokeColor=#147EBA;fillColor=#E6F2F8;verticalAlign=top;align=left;spacingLeft=30;fontColor=#147EBA;dashed=0;" parent="1" vertex="1">
          <mxGeometry x="540" y="160" width="130" height="80" as="geometry" />
        </mxCell>
        <mxCell id="CEkS9k3KRwkcofwsft-u-21" value="Public subnet 02" style="points=[[0,0],[0.25,0],[0.5,0],[0.75,0],[1,0],[1,0.25],[1,0.5],[1,0.75],[1,1],[0.75,1],[0.5,1],[0.25,1],[0,1],[0,0.75],[0,0.5],[0,0.25]];outlineConnect=0;gradientColor=none;html=1;whiteSpace=wrap;fontSize=12;fontStyle=0;shape=mxgraph.aws4.group;grIcon=mxgraph.aws4.group_security_group;grStroke=0;strokeColor=#248814;fillColor=#E9F3E6;verticalAlign=top;align=left;spacingLeft=30;fontColor=#248814;dashed=0;" parent="1" vertex="1">
          <mxGeometry x="540" y="590" width="130" height="130" as="geometry" />
        </mxCell>
        <mxCell id="_q4rEJNwvG85wnGiOkt0-8" value="Elastic IP&#xa;Address" style="outlineConnect=0;fontColor=#232F3E;gradientColor=none;strokeColor=#232F3E;fillColor=#ffffff;dashed=0;verticalLabelPosition=bottom;verticalAlign=top;align=center;html=1;fontSize=12;fontStyle=0;aspect=fixed;shape=mxgraph.aws4.resourceIcon;resIcon=mxgraph.aws4.elastic_ip_address;rotation=0;" vertex="1" parent="1">
          <mxGeometry x="310" y="470" width="60" height="60" as="geometry" />
        </mxCell>
        <mxCell id="_q4rEJNwvG85wnGiOkt0-9" value="Elastic IP&#xa;Address" style="outlineConnect=0;fontColor=#232F3E;gradientColor=none;strokeColor=#232F3E;fillColor=#ffffff;dashed=0;verticalLabelPosition=bottom;verticalAlign=top;align=center;html=1;fontSize=12;fontStyle=0;aspect=fixed;shape=mxgraph.aws4.resourceIcon;resIcon=mxgraph.aws4.elastic_ip_address;rotation=0;" vertex="1" parent="1">
          <mxGeometry x="650" y="470" width="60" height="60" as="geometry" />
        </mxCell>
        <mxCell id="_q4rEJNwvG85wnGiOkt0-20" value="" style="edgeStyle=orthogonalEdgeStyle;rounded=0;orthogonalLoop=1;jettySize=auto;html=1;" edge="1" parent="1" source="_q4rEJNwvG85wnGiOkt0-10" target="_q4rEJNwvG85wnGiOkt0-8">
          <mxGeometry relative="1" as="geometry" />
        </mxCell>
        <mxCell id="_q4rEJNwvG85wnGiOkt0-24" value="" style="edgeStyle=orthogonalEdgeStyle;rounded=0;orthogonalLoop=1;jettySize=auto;html=1;" edge="1" parent="1" source="_q4rEJNwvG85wnGiOkt0-10" target="CEkS9k3KRwkcofwsft-u-10">
          <mxGeometry relative="1" as="geometry" />
        </mxCell>
        <mxCell id="_q4rEJNwvG85wnGiOkt0-10" value="NAT gateway" style="outlineConnect=0;fontColor=#232F3E;gradientColor=none;strokeColor=#232F3E;fillColor=#ffffff;dashed=0;verticalLabelPosition=bottom;verticalAlign=top;align=center;html=1;fontSize=12;fontStyle=0;aspect=fixed;shape=mxgraph.aws4.resourceIcon;resIcon=mxgraph.aws4.nat_gateway;" vertex="1" parent="1">
          <mxGeometry x="230.5" y="420" width="60" height="60" as="geometry" />
        </mxCell>
        <mxCell id="_q4rEJNwvG85wnGiOkt0-22" value="" style="edgeStyle=orthogonalEdgeStyle;rounded=0;orthogonalLoop=1;jettySize=auto;html=1;" edge="1" parent="1" source="_q4rEJNwvG85wnGiOkt0-11" target="_q4rEJNwvG85wnGiOkt0-9">
          <mxGeometry relative="1" as="geometry" />
        </mxCell>
        <mxCell id="_q4rEJNwvG85wnGiOkt0-25" value="" style="edgeStyle=orthogonalEdgeStyle;rounded=0;orthogonalLoop=1;jettySize=auto;html=1;" edge="1" parent="1" source="_q4rEJNwvG85wnGiOkt0-11" target="CEkS9k3KRwkcofwsft-u-21">
          <mxGeometry relative="1" as="geometry" />
        </mxCell>
        <mxCell id="_q4rEJNwvG85wnGiOkt0-11" value="NAT gateway" style="outlineConnect=0;fontColor=#232F3E;gradientColor=none;strokeColor=#232F3E;fillColor=#ffffff;dashed=0;verticalLabelPosition=bottom;verticalAlign=top;align=center;html=1;fontSize=12;fontStyle=0;aspect=fixed;shape=mxgraph.aws4.resourceIcon;resIcon=mxgraph.aws4.nat_gateway;" vertex="1" parent="1">
          <mxGeometry x="575" y="430" width="60" height="60" as="geometry" />
        </mxCell>
        <mxCell id="_q4rEJNwvG85wnGiOkt0-17" value="" style="edgeStyle=orthogonalEdgeStyle;rounded=0;orthogonalLoop=1;jettySize=auto;html=1;" edge="1" parent="1" source="_q4rEJNwvG85wnGiOkt0-12" target="_q4rEJNwvG85wnGiOkt0-10">
          <mxGeometry relative="1" as="geometry" />
        </mxCell>
        <mxCell id="_q4rEJNwvG85wnGiOkt0-12" value="Route table" style="outlineConnect=0;fontColor=#232F3E;gradientColor=none;strokeColor=#232F3E;fillColor=#ffffff;dashed=0;verticalLabelPosition=bottom;verticalAlign=top;align=center;html=1;fontSize=12;fontStyle=0;aspect=fixed;shape=mxgraph.aws4.resourceIcon;resIcon=mxgraph.aws4.route_table;" vertex="1" parent="1">
          <mxGeometry x="230.5" y="320" width="60" height="60" as="geometry" />
        </mxCell>
        <mxCell id="_q4rEJNwvG85wnGiOkt0-18" value="" style="edgeStyle=orthogonalEdgeStyle;rounded=0;orthogonalLoop=1;jettySize=auto;html=1;" edge="1" parent="1" source="_q4rEJNwvG85wnGiOkt0-13" target="_q4rEJNwvG85wnGiOkt0-11">
          <mxGeometry relative="1" as="geometry" />
        </mxCell>
        <mxCell id="_q4rEJNwvG85wnGiOkt0-13" value="Route table" style="outlineConnect=0;fontColor=#232F3E;gradientColor=none;strokeColor=#232F3E;fillColor=#ffffff;dashed=0;verticalLabelPosition=bottom;verticalAlign=top;align=center;html=1;fontSize=12;fontStyle=0;aspect=fixed;shape=mxgraph.aws4.resourceIcon;resIcon=mxgraph.aws4.route_table;" vertex="1" parent="1">
          <mxGeometry x="575" y="320" width="60" height="60" as="geometry" />
        </mxCell>
        <mxCell id="_q4rEJNwvG85wnGiOkt0-30" value="" style="edgeStyle=orthogonalEdgeStyle;rounded=0;orthogonalLoop=1;jettySize=auto;html=1;" edge="1" parent="1" source="_q4rEJNwvG85wnGiOkt0-14" target="_q4rEJNwvG85wnGiOkt0-29">
          <mxGeometry relative="1" as="geometry" />
        </mxCell>
        <mxCell id="_q4rEJNwvG85wnGiOkt0-14" value="Public Route table" style="outlineConnect=0;fontColor=#232F3E;gradientColor=none;strokeColor=#232F3E;fillColor=#ffffff;dashed=0;verticalLabelPosition=bottom;verticalAlign=top;align=center;html=1;fontSize=12;fontStyle=0;aspect=fixed;shape=mxgraph.aws4.resourceIcon;resIcon=mxgraph.aws4.route_table;" vertex="1" parent="1">
          <mxGeometry x="400.5" y="770" width="60" height="60" as="geometry" />
        </mxCell>
        <mxCell id="_q4rEJNwvG85wnGiOkt0-28" value="" style="edgeStyle=orthogonalEdgeStyle;rounded=0;orthogonalLoop=1;jettySize=auto;html=1;exitX=0;exitY=0.5;exitDx=0;exitDy=0;" edge="1" parent="1" source="CEkS9k3KRwkcofwsft-u-21" target="_q4rEJNwvG85wnGiOkt0-14">
          <mxGeometry relative="1" as="geometry">
            <mxPoint x="335.5" y="665" as="sourcePoint" />
            <mxPoint x="440.5" y="780" as="targetPoint" />
          </mxGeometry>
        </mxCell>
        <mxCell id="_q4rEJNwvG85wnGiOkt0-29" value="Internet&#xa;gateway" style="outlineConnect=0;fontColor=#232F3E;gradientColor=none;strokeColor=#232F3E;fillColor=#ffffff;dashed=0;verticalLabelPosition=bottom;verticalAlign=top;align=center;html=1;fontSize=12;fontStyle=0;aspect=fixed;shape=mxgraph.aws4.resourceIcon;resIcon=mxgraph.aws4.internet_gateway;" vertex="1" parent="1">
          <mxGeometry x="400.5" y="930" width="60" height="60" as="geometry" />
        </mxCell>
        <mxCell id="_q4rEJNwvG85wnGiOkt0-31" style="edgeStyle=orthogonalEdgeStyle;rounded=0;orthogonalLoop=1;jettySize=auto;html=1;exitX=0.5;exitY=1;exitDx=0;exitDy=0;" edge="1" parent="1" source="CEkS9k3KRwkcofwsft-u-5" target="CEkS9k3KRwkcofwsft-u-5">
          <mxGeometry relative="1" as="geometry" />
        </mxCell>
      </root>
    </mxGraphModel>
  </diagram>
</mxfile>
